<?xml version="1.0" standalone="no"?>
<!DOCTYPE svg PUBLIC "-//W3C//DTD SVG 20010904//EN"
 "http://www.w3.org/TR/2001/REC-SVG-20010904/DTD/svg10.dtd">
<svg version="1.0" xmlns="http://www.w3.org/2000/svg"
 width="155.000000pt" height="86.000000pt" viewBox="0 0 155.000000 86.000000"
 preserveAspectRatio="xMidYMid meet">

<g transform="translate(0.000000,86.000000) scale(0.100000,-0.100000)"
fill="#000000" stroke="none">
<path d="M0 430 l0 -430 775 0 775 0 0 430 0 430 -775 0 -775 0 0 -430z m754
75 c0 -33 -9 -86 -18 -117 -17 -51 -21 -56 -37 -47 -24 12 -69 82 -69 106 0
10 14 26 31 35 19 11 38 36 52 67 18 40 24 46 31 32 6 -9 10 -43 10 -76z
m-134 -57 c0 -26 -33 -86 -57 -105 -12 -10 -22 -9 -46 4 -20 10 -47 14 -83 11
-60 -5 -62 5 -8 42 34 23 154 69 182 70 6 0 12 -10 12 -22z m249 13 c8 -6 12
-19 9 -35 -3 -15 -1 -29 3 -32 14 -9 10 -41 -7 -59 -11 -10 -29 -15 -53 -13
l-36 3 -3 59 c-2 32 -1 65 2 72 6 16 63 19 85 5z m141 -1 c0 -5 -18 -10 -40
-10 -33 0 -40 -3 -40 -20 0 -16 7 -20 35 -20 19 0 35 -4 35 -10 0 -5 -16 -10
-35 -10 -31 0 -35 -3 -35 -25 0 -22 4 -25 40 -25 22 0 40 -4 40 -10 0 -5 -22
-10 -50 -10 l-50 0 0 75 0 75 50 0 c28 0 50 -4 50 -10z m104 4 c31 -12 16 -22
-24 -17 -35 5 -40 3 -40 -14 0 -14 10 -23 31 -29 69 -20 64 -79 -6 -79 -22 0
-40 5 -43 13 -3 9 2 10 21 3 18 -7 30 -6 42 3 23 17 13 32 -30 46 -26 9 -35
17 -35 34 0 39 38 58 84 40z m146 -4 c0 -5 -11 -10 -25 -10 -24 0 -25 -2 -25
-65 0 -37 -4 -65 -10 -65 -6 0 -10 28 -10 65 0 63 -1 65 -25 65 -14 0 -25 5
-25 10 0 6 27 10 60 10 33 0 60 -4 60 -10z m-615 -90 c0 -22 -29 -18 -33 3 -3
14 1 18 15 15 10 -2 18 -10 18 -18z m39 -36 c9 -3 16 -16 16 -28 1 -28 33 -98
53 -115 30 -24 18 -31 -25 -14 -91 35 -191 126 -166 151 13 13 95 16 122 6z
m401 -64 c3 -5 1 -10 -4 -10 -6 0 -11 5 -11 10 0 6 2 10 4 10 3 0 8 -4 11 -10z"/>
<path d="M810 431 c0 -16 6 -21 26 -21 33 0 30 33 -4 38 -17 3 -22 -2 -22 -17z"/>
<path d="M810 365 c0 -23 4 -26 28 -23 38 4 38 42 0 46 -24 3 -28 0 -28 -23z"/>
</g>
</svg>
